<svg width="546" height="576" viewBox="0 0 546 576" fill="none" xmlns="http://www.w3.org/2000/svg">
<path d="M106.765 129.65C107.621 122.335 113.089 116.403 120.31 114.956L280.103 82.9361C287.324 81.4891 294.656 84.8565 298.264 91.2773L378.095 233.354C381.702 239.775 380.765 247.789 375.774 253.204L265.32 373.032C260.328 378.447 252.417 380.032 245.724 376.958L97.6289 308.939C90.9362 305.865 86.984 298.831 87.8393 291.516L106.765 129.65Z" fill="#FBBF24"/>
<path d="M508.437 455.561C510.644 461.22 509.664 467.625 505.867 472.366L459.681 530.027C455.884 534.767 449.846 537.122 443.842 536.204L370.813 525.036C364.809 524.117 359.751 520.066 357.545 514.408L330.702 445.578C328.495 439.92 329.475 433.514 333.272 428.773L379.458 371.112C383.255 366.372 389.293 364.017 395.297 364.935L468.326 376.104C474.33 377.022 479.388 381.073 481.595 386.731L508.437 455.561Z" fill="#FBBF24"/>
<path d="M210.17 454.535C221.979 460.174 223.255 476.483 212.467 483.89L127.495 542.231C116.707 549.639 101.945 542.589 100.925 529.543L92.8854 426.785C91.8647 413.738 105.35 404.479 117.159 410.118L210.17 454.535Z" fill="#10B981"/>
<path d="M449.583 80.9526C456.888 80.0152 463.966 83.8881 467.115 90.5458L478.94 115.548C482.089 122.205 480.593 130.134 475.234 135.186L455.11 154.158C449.751 159.21 441.748 160.237 435.288 156.702L411.025 143.426C404.564 139.891 401.115 132.597 402.48 125.36L407.609 98.1823C408.975 90.9452 414.846 85.4106 422.15 84.4731L449.583 80.9526Z" fill="#10B981"/>
<path d="M506.511 291.463C512.951 287.889 520.959 288.868 526.348 293.888L532.86 299.954C538.249 304.975 539.792 312.894 536.683 319.57L532.926 327.638C529.817 334.314 522.762 338.229 515.452 337.335L506.618 336.255C499.308 335.361 493.404 329.862 491.995 322.633L490.293 313.898C488.884 306.669 492.29 299.355 498.73 295.781L506.511 291.463Z" fill="#10B981"/>
<g filter="url(#filter0_d_29_2)">
<rect x="179" y="179" width="256" height="256" rx="32" fill="white"/>
<rect x="215.571" y="233.857" width="36.5714" height="36.5714" rx="18.2857" fill="#57534E"/>
<rect x="398.429" y="325.286" width="36.5714" height="36.5714" rx="18.2857" transform="rotate(-180 398.429 325.286)" fill="#57534E"/>
<rect x="288.714" y="380.143" width="73.1429" height="36.5714" rx="18.2857" transform="rotate(-180 288.714 380.143)" fill="#57534E"/>
<rect x="398.429" y="380.143" width="91.4286" height="36.5714" rx="18.2857" transform="rotate(-180 398.429 380.143)" fill="#57534E"/>
<rect x="270.429" y="233.857" width="128" height="36.5714" rx="18.2857" fill="#57534E"/>
<rect x="343.571" y="325.286" width="128" height="36.5714" rx="18.2857" transform="rotate(-180 343.571 325.286)" fill="#EF4444"/>
</g>
<defs>
<filter id="filter0_d_29_2" x="137" y="147" width="340" height="340" filterUnits="userSpaceOnUse" color-interpolation-filters="sRGB">
<feFlood flood-opacity="0" result="BackgroundImageFix"/>
<feColorMatrix in="SourceAlpha" type="matrix" values="0 0 0 0 0 0 0 0 0 0 0 0 0 0 0 0 0 0 127 0" result="hardAlpha"/>
<feOffset dy="10"/>
<feGaussianBlur stdDeviation="21"/>
<feComposite in2="hardAlpha" operator="out"/>
<feColorMatrix type="matrix" values="0 0 0 0 0 0 0 0 0 0 0 0 0 0 0 0 0 0 0.25 0"/>
<feBlend mode="normal" in2="BackgroundImageFix" result="effect1_dropShadow_29_2"/>
<feBlend mode="normal" in="SourceGraphic" in2="effect1_dropShadow_29_2" result="shape"/>
</filter>
</defs>
</svg>
